<?xml version="1.0" encoding="UTF-8"?>
<svg width="40px" height="42px" viewBox="0 0 40 42" version="1.1" xmlns="http://www.w3.org/2000/svg" xmlns:xlink="http://www.w3.org/1999/xlink">
    <title>bond</title>
    <g id="控件" stroke="none" stroke-width="1" fill="none" fill-rule="evenodd">
        <g id="4" transform="translate(-512.000000, -25.000000)" fill="#F7B62D" fill-rule="nonzero">
            <path d="M550.715951,52.2762283 C551.486555,52.6045522 551.844201,53.4921569 551.514211,54.2588712 C548.182839,61.9987023 540.563777,67 532.102987,67 C527.162111,67 522.507744,65.2943067 518.827024,62.3336639 L515.20505,65.4422298 C514.660386,65.9096763 513.812276,65.5741366 513.738977,64.862167 L512.627802,54.0784735 C512.423394,53.3591151 512.782825,52.5832883 513.492005,52.2811352 C514.256662,51.9528114 515.153751,52.3076897 515.483692,53.074404 C518.336882,59.6995697 524.859315,63.980383 532.102987,63.980383 C539.346659,63.980383 545.871026,59.6975973 548.724264,53.0694971 C549.054253,52.3027829 549.951293,51.9469424 550.715951,52.2762283 Z M531.852676,33 C532.672801,33 533.335388,33.6763104 533.335388,34.5029119 L533.335388,35.8179598 C533.650464,35.8320496 533.956274,35.8461394 534.262083,35.8696224 C534.683729,35.9024986 535.341682,36.0903626 536.212776,36.4332144 C536.842928,36.6774375 537.259941,37.3020853 537.259941,37.9830922 C537.259941,38.8942326 536.527852,39.6362953 535.628958,39.6362953 C535.489954,39.6362953 535.355583,39.6175089 535.221212,39.5846327 C534.011875,39.2699605 533.034212,39.100883 532.399426,39.100883 L532.274322,39.100883 C531.671971,39.124366 531.129854,39.2605673 530.606272,39.5094871 C529.809314,39.8946083 529.642509,40.5521323 529.610075,40.9137704 C529.559107,41.5478114 529.841748,42.2006387 530.318996,42.5294007 C531.236424,43.1681383 532.223354,43.6894608 533.07128,44.1168514 C534.053577,44.6099944 535.091475,45.1735863 536.004269,45.9344355 C537.102403,46.8502724 537.723288,47.8741311 537.913261,49.0529776 C538.33954,51.7300395 537.181172,53.8247229 534.734697,54.7922224 C534.317685,54.9566034 533.886772,55.0740184 533.469759,55.1867368 C533.423424,55.2008266 533.377089,55.2102198 533.335388,55.2243096 L533.335388,56.4876949 C533.335388,57.318993 532.668168,57.9906068 531.852676,57.9906068 L530.703575,57.9906068 L530.703575,58 C529.88345,58 529.220863,57.3236896 529.220863,56.4970881 L529.220863,55.2712756 L529.211596,55.2712756 C528.822384,55.19613 528.423905,55.1209844 528.03006,55.0129626 C527.789119,54.9472102 527.436975,54.7922224 526.950461,54.5479992 C526.366643,54.2521135 526.000598,53.6603419 526.000598,52.9934248 C526.000598,52.5284614 526.17667,52.086981 526.501014,51.758219 C526.820723,51.4294571 527.265537,51.2415931 527.719617,51.2415931 C527.955924,51.2415931 528.187598,51.2885591 528.405371,51.3871877 C529.355234,51.805185 530.11049,52.0588014 530.592371,52.1245538 C530.865746,52.1621266 531.143755,52.180913 531.41713,52.180913 C531.96388,52.180913 532.515263,52.1057674 533.052746,51.9554762 C533.974808,51.7018599 534.266716,51.0443359 534.354752,50.6733045 C534.516924,50.0157806 534.326952,49.2878076 533.882138,48.8651137 C533.529994,48.5269585 533.117615,48.2169829 532.686702,47.9680631 C532.278956,47.7332331 531.848043,47.5077964 531.43103,47.2964494 C531.009384,47.0804058 530.573837,46.8596656 530.152191,46.6107458 C529.503505,46.2350178 528.660213,45.7277851 527.877155,45.1454067 C526.649285,44.2248732 525.931096,42.6374225 526.005232,40.9983092 C526.079367,39.3310163 526.927293,37.879767 528.331236,37.0202893 C528.646312,36.8277287 528.938221,36.6680443 529.216229,36.5365395 C529.213449,36.2378358 529.212337,35.7108773 529.211893,35.2498591 L529.211596,34.5029119 L529.211596,34.5029119 C529.211596,33.6763104 529.878816,33 530.694308,33 L531.852676,33 Z M532.102987,25 C537.319846,25 542.242058,26.9394509 546.019814,30.230144 L549.369786,27.3547913 C549.914451,26.8873448 550.76256,27.2228845 550.835811,27.9348541 L551.971165,38.9547542 C552.113671,39.6699533 551.717803,40.4017869 551.008421,40.6625131 C550.222006,40.9534585 549.35064,40.5523984 549.060201,39.7689913 C546.450019,32.7418034 539.635164,28.0196651 532.103035,28.0196651 C524.314022,28.0196651 517.424079,32.9551056 514.956192,40.3008037 C514.744708,40.9328692 514.151936,41.3319089 513.517679,41.3319089 C513.35764,41.3319089 513.195619,41.3073267 513.037514,41.2542657 C512.241235,40.9898267 511.812466,40.1346935 512.079214,39.3433971 C514.96006,30.7641154 523.007891,25 532.102987,25 Z" id="bond"></path>
        </g>
    </g>
</svg>