<?xml version="1.0" encoding="UTF-8"?>
<svg width="24px" height="24px" viewBox="0 0 24 24" version="1.1" xmlns="http://www.w3.org/2000/svg" xmlns:xlink="http://www.w3.org/1999/xlink">
    <title>形状</title>
    <g id="手机版深色" stroke="none" stroke-width="1" fill="none" fill-rule="evenodd">
        <g id="22设置-1" transform="translate(-666.000000, -419.000000)" fill="#979797" fill-rule="nonzero">
            <path d="M678,443 C671.373,443 666,437.627 666,431 C666,424.373 671.373,419 678,419 C684.627,419 690,424.373 690,431 C690,437.627 684.627,443 678,443 Z M678,429.586 L673.046,424.63 C672.858363,424.443679 672.604393,424.339531 672.339964,424.340468 C672.075536,424.341406 671.822311,424.447353 671.636,424.635 C671.447616,424.820916 671.341158,425.074286 671.340213,425.33896 C671.339281,425.603634 671.443939,425.857753 671.631,426.045 L676.586,431 L671.63,435.954 C671.443679,436.141637 671.339531,436.395607 671.340468,436.660036 C671.341406,436.924464 671.447353,437.177689 671.635,437.364 C671.820916,437.552384 672.074286,437.658842 672.33896,437.659787 C672.603634,437.660719 672.857753,437.556061 673.045,437.369 L678,432.414 L682.954,437.369 C683.141637,437.555321 683.395607,437.659469 683.660036,437.658532 C683.924464,437.657594 684.177689,437.551647 684.364,437.364 C684.552384,437.178084 684.658842,436.924714 684.659787,436.66004 C684.660719,436.395366 684.556061,436.141247 684.369,435.954 L679.414,431 L684.369,426.046 C684.555321,425.858363 684.659469,425.604393 684.658532,425.339964 C684.657594,425.075536 684.551647,424.822311 684.364,424.636 C684.178084,424.447616 683.924714,424.341158 683.66004,424.340213 C683.395366,424.339281 683.141247,424.443939 682.954,424.631 L678,429.586 Z" id="形状"></path>
        </g>
    </g>
</svg>