<?xml version="1.0" encoding="UTF-8"?>
<svg width="43px" height="43px" viewBox="0 0 43 43" version="1.1" xmlns="http://www.w3.org/2000/svg" xmlns:xlink="http://www.w3.org/1999/xlink">
    <title>home</title>
    <g id="控件" stroke="none" stroke-width="1" fill="none" fill-rule="evenodd">
        <g id="矩形备份" transform="translate(-49.000000, -24.000000)" fill="#B4B4B4" fill-rule="nonzero">
            <path d="M70.4624077,24.0002261 C70.9854671,23.9926411 71.4934046,24.1761142 71.8909157,24.5164609 L71.8909157,24.5164609 L91.2241077,41.7162743 C91.9273418,42.3254119 92.1824575,43.305482 91.8655839,44.1806134 C91.5487102,45.0557447 90.7254754,45.6446875 89.7955997,45.6614815 L89.7955997,45.6614815 L86.8956209,45.6614815 L86.8956209,62.5387984 C86.9041978,63.7134388 86.4461836,64.8433758 85.6223426,65.6800202 C84.7985016,66.5166646 83.6763233,66.9914779 82.50269,67 L82.50269,67 L58.4436067,67 C57.2652579,66.99432 56.1375892,66.5196257 55.3094139,65.6806556 C54.4812386,64.8416855 54.0206213,63.7073914 54.0291945,62.5280485 L54.0291945,62.5280485 L54.0291945,45.6292318 L51.2044003,45.6292318 C50.2745246,45.6124378 49.4512898,45.0234951 49.1344161,44.1483637 C48.8175425,43.2732323 49.0726582,42.2931622 49.7758923,41.6840246 L49.7758923,41.6840246 L69.1090843,24.4842112 C69.4913279,24.1722473 69.9691898,24.0014358 70.4624077,24.0002261 Z M70.4624077,27.6016774 L53.8036406,42.4365165 L57.2513932,42.4365165 L57.2513932,62.5280485 C57.2393687,63.2008031 57.7715516,63.7574358 58.4436067,63.775035 L58.4436067,63.775035 L82.50269,63.775035 C83.1645798,63.7516818 83.6855555,63.2015567 83.6734222,62.5387984 L83.6734222,62.5387984 L83.6734222,42.4365165 L87.1211748,42.4365165 L70.4624077,27.6016774 Z M70.4624077,46.5752216 C74.0215501,46.5752216 76.906805,49.4629536 76.906805,53.0251516 C76.906805,56.5873496 74.0215501,59.4750817 70.4624077,59.4750817 C66.9032653,59.4750817 64.0180103,56.5873496 64.0180103,53.0251516 C64.0180103,49.4629536 66.9032653,46.5752216 70.4624077,46.5752216 Z M70.4624077,49.8001866 C68.6828365,49.8001866 67.240209,51.2440526 67.240209,53.0251516 C67.240209,54.8062506 68.6828365,56.2501166 70.4624077,56.2501166 C72.2419789,56.2501166 73.6846064,54.8062506 73.6846064,53.0251516 C73.6846064,51.2440526 72.2419789,49.8001866 70.4624077,49.8001866 Z" id="home"></path>
        </g>
    </g>
</svg>