<?xml version="1.0" encoding="UTF-8"?>
<svg width="44px" height="43px" viewBox="0 0 44 43" version="1.1" xmlns="http://www.w3.org/2000/svg" xmlns:xlink="http://www.w3.org/1999/xlink">
    <title>nfts</title>
    <g id="控件" stroke="none" stroke-width="1" fill="none" fill-rule="evenodd">
        <g id="2" transform="translate(-203.000000, -24.000000)" fill="#F7B62D" fill-rule="nonzero" stroke="#F7B62D" stroke-width="0.5">
            <path d="M204.001318,54.6554307 C203.958799,56.5567119 204.947725,58.3320702 206.585811,59.2952108 C208.223897,60.2583514 210.254456,60.2583514 211.892542,59.2952108 C213.530628,58.3320702 214.519555,56.5567119 214.477035,54.6554307 C214.413296,51.8052903 212.086999,49.5280678 209.239177,49.5280678 C206.391354,49.5280678 204.065057,51.8052903 204.001318,54.6554307 L204.001318,54.6554307 Z M209.240489,57.2699224 C207.798081,57.2699224 206.628778,56.0993745 206.628778,54.6554306 C206.628778,53.2114867 207.798081,52.0409389 209.240489,52.0409389 C210.682897,52.0409389 211.8522,53.2114867 211.8522,54.6554306 C211.8522,56.0993745 210.682897,57.2699224 209.240489,57.2699224 Z M235.522965,54.6554307 C235.480445,56.5567119 236.469372,58.3320702 238.107458,59.2952108 C239.745544,60.2583514 241.776103,60.2583514 243.414189,59.2952108 C245.052275,58.3320702 246.041201,56.5567119 245.998682,54.6554307 C245.934943,51.8052903 243.608646,49.5280678 240.760823,49.5280678 C237.913001,49.5280678 235.586704,51.8052903 235.522965,54.6554307 L235.522965,54.6554307 Z M240.759511,57.2699224 C239.317103,57.2699224 238.1478,56.0993745 238.1478,54.6554306 C238.1478,53.2114867 239.317103,52.0409389 240.759511,52.0409389 C242.201919,52.0409389 243.371222,53.2114867 243.371222,54.6554306 C243.371222,56.0993745 242.201919,57.2699224 240.759511,57.2699224 L240.759511,57.2699224 Z M230.233921,30.2447492 C230.233921,27.3481542 227.888265,25 224.99475,25 C222.101236,25 219.755579,27.3481542 219.755579,30.2447492 C219.819318,33.09489 222.145615,35.3721131 224.993438,35.3721131 C227.841261,35.3721131 230.167558,33.09489 230.231297,30.2447492 L230.233921,30.2447492 Z M227.406974,29.2436222 C227.958568,30.5787261 227.324559,32.1086733 225.990875,32.6608548 C224.657191,33.2130364 223.128871,32.5783525 222.577277,31.2432486 C222.025683,29.9081447 222.659692,28.3781975 223.993376,27.8260159 C225.32706,27.2738344 226.85538,27.9085183 227.406974,29.2436222 L227.406974,29.2436222 Z M242.489277,48.4253202 C243.318725,48.4253202 243.733449,48.0180376 243.733449,47.2061 C243.717792,39.9018852 239.491868,33.2629964 232.885005,30.1632927 C232.142177,30.1159953 231.643458,30.4181727 231.388849,31.069825 C231.13424,31.7214772 231.262857,32.212844 231.7747,32.5439253 C237.457705,35.2118854 241.093098,40.9225399 241.108614,47.2061 C241.197858,48.0206653 241.659829,48.4253202 242.489277,48.4253202 Z M218.141305,32.5439253 C218.692521,31.9605915 218.815888,31.3667472 218.508782,30.7597646 C218.201677,30.1554098 217.710833,29.9557099 217.033625,30.1632927 C210.426015,33.2615726 206.198203,39.8991903 206.179931,47.2034724 C206.44504,48.0180376 206.907011,48.4253202 207.563219,48.4253202 C208.219428,48.4253202 208.636777,48.0180376 208.804766,47.2034724 C208.820283,40.9199122 212.455675,35.2092578 218.138681,32.5412977 L218.141305,32.5439253 Z M214.684397,59.6794589 C213.980942,59.2117408 213.424477,59.2853145 213.015002,59.8949246 C212.605528,60.5071623 212.605528,61.1115172 213.015002,61.7079892 C219.980617,67.4563032 230.046951,67.4276062 236.979748,61.6396708 C237.3551,61.0747304 237.3551,60.4913966 236.979748,59.8949246 C236.604397,59.2984526 236.042682,59.2091132 235.297229,59.6242787 C232.393232,62.0446583 228.734131,63.3704027 224.955378,63.3712789 C221.207751,63.3696293 217.57711,62.0646248 214.684397,59.6794589 L214.684397,59.6794589 Z" id="nfts"></path>
        </g>
    </g>
</svg>