<?xml version="1.0" encoding="UTF-8"?>
<svg width="5px" height="20px" viewBox="0 0 5 20" version="1.1" xmlns="http://www.w3.org/2000/svg" xmlns:xlink="http://www.w3.org/1999/xlink">
    <title>形状结合</title>
    <g id="手机版深色" stroke="none" stroke-width="1" fill="none" fill-rule="evenodd">
        <g id="31" transform="translate(-685.000000, -633.000000)" fill="#979797">
            <path d="M687.5,638 C688.880712,638 690,636.880712 690,635.5 C690,634.119288 688.880712,633 687.5,633 C686.119288,633 685,634.119288 685,635.5 C685,636.880712 686.119288,638 687.5,638 Z M687.5,645.5 C688.880712,645.5 690,644.380712 690,643 C690,641.619288 688.880712,640.5 687.5,640.5 C686.119288,640.5 685,641.619288 685,643 C685,644.380712 686.119288,645.5 687.5,645.5 Z M687.5,653 C688.880712,653 690,651.880712 690,650.5 C690,649.119288 688.880712,648 687.5,648 C686.119288,648 685,649.119288 685,650.5 C685,651.880712 686.119288,653 687.5,653 Z" id="形状结合"></path>
        </g>
    </g>
</svg>