<?xml version="1.0" encoding="UTF-8"?>
<svg width="42px" height="42px" viewBox="0 0 42 42" version="1.1" xmlns="http://www.w3.org/2000/svg" xmlns:xlink="http://www.w3.org/1999/xlink">
    <title>Profile</title>
    <g id="控件" stroke="none" stroke-width="1" fill="none" fill-rule="evenodd">
        <g id="5" transform="translate(-664.000000, -25.000000)" fill="#F7B62D" fill-rule="nonzero">
            <path d="M685,25 C673.401911,25 664,34.4019018 664,46.0000205 C664,57.5981393 673.401911,67 685,67 C696.598089,67 706,57.5980982 706,46.0000205 C706,34.4019429 696.59813,25 685,25 Z M685,27.8636392 C695.017137,27.8636392 703.136358,35.9828525 703.136358,45.9999795 C703.136358,49.5590298 702.096035,52.8700831 700.323968,55.6713325 C697.33456,52.4748659 693.372808,50.1966545 688.892745,49.3567769 C691.679941,47.9370613 693.590926,45.0473237 693.590926,41.7054866 C693.590926,36.9607437 689.744789,33.1146102 685.000041,33.1146102 C680.255294,33.1146102 676.409115,36.9607437 676.409115,41.7054866 C676.409115,45.0473648 678.32195,47.9370613 681.107255,49.3567769 C676.629082,50.1966956 672.667372,52.4748659 669.676978,55.6713325 C667.90491,52.8701653 666.863683,49.5590709 666.863683,46.0000205 C666.863683,35.9828936 674.984713,27.8636392 685,27.8636392 Z M685,47.9100175 C681.573329,47.9100175 678.795422,45.1321129 678.795422,41.7054455 C678.795422,38.278778 681.573329,35.5009145 685,35.5009145 C688.426671,35.5009145 691.204537,38.278778 691.204537,41.7054455 C691.204537,45.132154 688.426671,47.9100175 685,47.9100175 Z M685,64.1363608 C679.591529,64.1363608 674.748881,61.7546597 671.4257,57.9989461 C674.746127,54.2366976 679.589679,51.8540511 685,51.8540511 C690.412211,51.8540511 695.255763,54.2366976 698.575245,57.9979597 C695.252064,61.7546597 690.410362,64.1363608 685,64.1363608 Z" id="Profile"></path>
        </g>
    </g>
</svg>