<?xml version="1.0" encoding="UTF-8"?>
<svg width="41px" height="37px" viewBox="0 0 41 37" version="1.1" xmlns="http://www.w3.org/2000/svg" xmlns:xlink="http://www.w3.org/1999/xlink">
    <title>编组</title>
    <g id="手机版深色" stroke="none" stroke-width="1" fill="none" fill-rule="evenodd">
        <g id="23" transform="translate(-528.000000, -113.000000)" fill="#F7B62D" fill-rule="nonzero">
            <g id="编组" transform="translate(528.000000, 113.000000)">
                <polygon id="路径" points="10.25 18.6149068 30.75 18.6149068 30.75 37 10.25 37"></polygon>
                <path d="M38.95,8.17115252 L34.85,8.17115252 L34.85,2.04278813 C34.85,1.50100703 34.6340185,0.981415878 34.2495689,0.598318791 C33.8651193,0.215221703 33.3436938,0 32.8,0 L8.2,0 C7.06781626,0 6.15,0.914587399 6.15,2.04278813 L6.15,8.17115252 L2.05,8.17115252 C0.917816263,8.17115252 0,9.08573992 0,10.2139406 L0,30.6418219 C0,31.7700227 0.917816263,32.6846101 2.05,32.6846101 L8.2,32.6846101 L8.2,28.5990338 L4.1,28.5990338 L4.1,12.2567288 L36.9,12.2567288 L36.9,28.5990338 L32.8,28.5990338 L32.8,32.6846101 L38.95,32.6846101 C40.0821837,32.6846101 41,31.7700227 41,30.6418219 L41,10.2139406 C41,9.08573992 40.0821837,8.17115252 38.95,8.17115252 Z M10.25,4.08557626 L30.75,4.08557626 L30.75,8.17115252 L10.25,8.17115252 L10.25,4.08557626 Z" id="形状"></path>
            </g>
        </g>
    </g>
</svg>