<?xml version="1.0" encoding="UTF-8"?>
<svg width="132px" height="132px" viewBox="0 0 132 132" version="1.1" xmlns="http://www.w3.org/2000/svg" xmlns:xlink="http://www.w3.org/1999/xlink">
    <title>编组</title>
    <g id="手机版深色" stroke="none" stroke-width="1" fill="none" fill-rule="evenodd">
        <g id="22设置-1" transform="translate(-309.000000, -152.000000)">
            <g id="编组" transform="translate(309.000000, 152.000000)">
                <circle id="椭圆形" stroke="#3F4142" stroke-width="3.6" fill="#848383" cx="66" cy="66" r="64.2"></circle>
                <path d="M74.2619048,61.9405941 C89.3058452,61.9405941 101.5,74.0680495 101.5,89.029703 L101.5,90.7227723 C101.5,94.4629977 98.4512723,97.4950495 94.6904762,97.4950495 L36.8095238,97.4950495 C33.0487277,97.4950495 30,94.4629977 30,90.7227723 L30,89.029703 C30,74.0680495 42.1941548,61.9405941 57.2380952,61.9405941 L74.2619048,61.9405941 L74.2619048,61.9405941 Z M65.75,23 C75.15225,23 82.7738095,30.5798713 82.7738095,39.9306931 C82.7738095,49.2815149 75.15225,56.8613861 65.75,56.8613861 C56.34775,56.8613861 48.7261905,49.2815149 48.7261905,39.9306931 C48.7261905,30.5798713 56.34775,23 65.75,23 Z" id="形状" stroke="#5D5C61" stroke-width="1.7875" fill="#5D5C61" fill-rule="nonzero"></path>
            </g>
        </g>
    </g>
</svg>