<?xml version="1.0" encoding="UTF-8"?>
<svg width="40px" height="41px" viewBox="0 0 40 41" version="1.1" xmlns="http://www.w3.org/2000/svg" xmlns:xlink="http://www.w3.org/1999/xlink">
    <title>stake</title>
    <g id="控件" stroke="none" stroke-width="1" fill="none" fill-rule="evenodd">
        <g id="矩形备份" transform="translate(-362.000000, -25.000000)" fill="#F7B62D" fill-rule="nonzero">
            <path d="M362,58.0952267 L362,51.2216027 C362,48.4212373 365.018868,48.4212373 365.018868,51.2216027 L365.018868,58.0952267 C365.018868,60.895592 367.283019,63.1868001 370.050314,63.1868001 L393.949686,63.1868001 C396.716981,63.1868001 398.981132,60.895592 398.981132,58.0952267 L398.981132,51.2216027 C398.981132,48.4212373 402,48.4212373 402,50.9670241 L402,57.8406481 C402,62.4230641 398.477987,65.9871654 393.949686,65.9871654 L369.798742,65.9871654 C365.522013,66.2417441 362,62.6776427 362,58.0952267 Z M397.220126,35.4377253 L397.220126,51.9853387 C396.968553,56.8223334 390.176101,60.6410134 382.125786,60.6410134 C373.823899,60.6410134 367.283019,56.8223334 367.031447,51.9853387 L367.031447,35.4377253 L367.031447,34.164832 C366.528302,29.0732587 373.320755,25 381.874214,25 C390.427673,25 397.220126,29.0732587 397.220126,34.164832 L397.220126,35.4377253 Z M381.874214,27.291208 C373.572327,27.291208 369.54717,31.3644667 369.54717,34.4194107 C369.54717,37.4743547 374.578616,40.7838774 381.874214,40.7838774 C389.421384,40.7838774 394.704403,37.4743547 394.704403,34.4194107 C394.704403,31.3644667 390.176101,27.291208 381.874214,27.291208 Z M394.955975,39.510984 C392.188679,42.0567707 387.408805,43.5842427 381.874214,43.5842427 C376.591195,43.5842427 372.062893,42.0567707 369.54717,39.510984 L369.54717,41.038456 C370.301887,44.3479787 375.584906,46.8937654 382.125786,46.8937654 C388.666667,46.8937654 394.704403,44.0934 395.459119,41.038456 L395.459119,39.510984 L394.955975,39.510984 Z M394.955975,45.3662934 C392.440252,47.91208 387.408805,49.439552 381.874214,49.439552 C376.591195,49.439552 372.314465,47.6575014 369.54717,45.3662934 L369.54717,46.6391867 C370.301887,49.9487094 375.584906,52.494496 381.874214,52.494496 C388.415094,52.494496 394.201258,49.6941307 394.955975,46.6391867 L394.955975,45.3662934 Z M394.955975,50.7124454 C392.440252,53.2582321 387.408805,54.7857041 381.874214,54.7857041 C376.591195,54.7857041 372.062893,53.2582321 369.54717,50.7124454 L369.54717,51.9853387 C370.301887,55.2948614 375.584906,57.8406481 381.874214,57.8406481 C388.415094,57.8406481 394.201258,55.0402827 394.955975,51.9853387 L394.955975,50.7124454 L394.955975,50.7124454 Z" id="stake"></path>
        </g>
    </g>
</svg>