<?xml version="1.0" encoding="UTF-8"?>
<svg width="40px" height="40px" viewBox="0 0 40 40" version="1.1" xmlns="http://www.w3.org/2000/svg" xmlns:xlink="http://www.w3.org/1999/xlink">
    <title>形状</title>
    <g id="手机版深色" stroke="none" stroke-width="1" fill="none" fill-rule="evenodd">
        <g id="24swap" transform="translate(-680.000000, -208.000000)" fill="#979797" fill-rule="nonzero">
            <path d="M703.814135,208 C705.027563,208 706.026858,208.857143 706.205303,210.035714 L706.205303,210.035714 L706.812017,214.142857 C707.525799,214.464286 708.239581,214.857143 708.917673,215.321429 L708.917673,215.321429 L712.95054,213.75 C713.236052,213.642857 713.485876,213.607143 713.771388,213.607143 C714.627926,213.607143 715.448775,214.071429 715.877044,214.821429 L715.877044,214.821429 L719.660087,221.214286 C720.266801,222.285714 720.016978,223.535714 719.089062,224.25 L719.089062,224.25 L715.698599,226.821429 C715.734288,227.178571 715.769977,227.571429 715.769977,228 C715.769977,228.428571 715.734288,228.821429 715.698599,229.178571 L715.698599,229.178571 L719.089062,231.75 C720.016978,232.464286 720.266801,233.714286 719.695776,234.75 L719.695776,234.75 L715.877044,241.214286 C715.484464,241.964286 714.663616,242.392857 713.807078,242.392857 C713.521565,242.392857 713.236052,242.357143 712.95054,242.25 L712.95054,242.25 L708.917673,240.678571 C708.203892,241.142857 707.525799,241.535714 706.812017,241.857143 L706.812017,241.857143 L706.205303,246 C706.026858,247.142857 705.027563,248 703.814135,248 L703.814135,248 L696.176671,248 C694.963242,248 693.928259,247.107143 693.785502,245.964286 L693.785502,245.964286 L693.178788,241.857143 C692.465006,241.535714 691.751225,241.142857 691.073132,240.678571 L691.073132,240.678571 L687.040266,242.25 C686.754753,242.357143 686.50493,242.392857 686.219417,242.392857 C685.362879,242.392857 684.54203,241.928571 684.113761,241.178571 L684.113761,241.178571 L680.330719,234.785714 C679.724004,233.714286 679.973828,232.464286 680.901744,231.75 L680.901744,231.75 L684.292207,229.178571 C684.220828,228.75 684.220828,228.357143 684.220828,228 C684.220828,227.642857 684.256518,227.25 684.292207,226.821429 L684.292207,226.821429 L680.901744,224.25 C679.973828,223.535714 679.724004,222.214286 680.330719,221.214286 L680.330719,221.214286 L684.14945,214.785714 C684.54203,214.035714 685.362879,213.607143 686.219417,213.607143 C686.50493,213.607143 686.790442,213.642857 687.075955,213.75 L687.075955,213.75 L691.108821,215.321429 C691.822603,214.857143 692.500696,214.464286 693.214477,214.142857 L693.214477,214.142857 L693.785502,210 C693.963948,208.857143 694.963242,208 696.176671,208 L696.176671,208 Z M699.995403,219.428571 C695.284444,219.428571 691.430023,223.285714 691.430023,228 C691.430023,232.714286 695.284444,236.571429 699.995403,236.571429 C704.706362,236.571429 708.560782,232.714286 708.560782,228 C708.560782,223.285714 704.706362,219.428571 699.995403,219.428571 Z" id="形状"></path>
        </g>
    </g>
</svg>