<?xml version="1.0" encoding="UTF-8"?>
<svg width="22px" height="22px" viewBox="0 0 22 22" version="1.1" xmlns="http://www.w3.org/2000/svg" xmlns:xlink="http://www.w3.org/1999/xlink">
    <title>编组</title>
    <g id="手机版深色" stroke="none" stroke-width="1" fill="none" fill-rule="evenodd">
        <g id="24swap" transform="translate(-30.000000, -635.000000)" fill="#979797" fill-rule="nonzero">
            <g id="编组" transform="translate(30.000000, 635.000000)">
                <path d="M11,22 C4.92525,22 0,17.07475 0,11 C0,4.92525 4.92525,0 11,0 C17.07475,0 22,4.92525 22,11 C22,17.07475 17.07475,22 11,22 Z M11,20.1666667 C16.06275,20.1666667 20.1666667,16.06275 20.1666667,11 C20.1666667,5.93725 16.06275,1.83333333 11,1.83333333 C5.93725,1.83333333 1.83333333,5.93725 1.83333333,11 C1.83333333,16.06275 5.93725,20.1666667 11,20.1666667 Z M10.0833333,10.0833333 C10.0833333,9.5770723 10.493739,9.16666665 11,9.16666665 C11.506261,9.16666665 11.9166667,9.5770723 11.9166667,10.0833333 L11.9166667,16.5 C11.9166667,17.006261 11.506261,17.4166667 11,17.4166667 C10.493739,17.4166667 10.0833333,17.006261 10.0833333,16.5 L10.0833333,10.0833333 L10.0833333,10.0833333 Z M10.9083333,7.15 C10.1995679,7.15 9.62499999,6.57543209 9.62499999,5.86666666 C9.62499999,5.15790123 10.1995679,4.58333333 10.9083333,4.58333333 C11.6170988,4.58333333 12.1916667,5.15790123 12.1916667,5.86666666 C12.1916667,6.57543209 11.6170988,7.15 10.9083333,7.15 L10.9083333,7.15 Z" id="形状"></path>
            </g>
        </g>
    </g>
</svg>